<svg width="140" height="141" viewBox="0 0 140 141" fill="none" xmlns="http://www.w3.org/2000/svg">
<circle cx="70" cy="70.207" r="67" stroke="#D9D9D9" stroke-width="6"/>
<circle cx="70" cy="70.207" r="60" fill="#D9D9D9"/>
<path d="M99.9683 82.9259C99.7964 82.4243 99.4997 81.9746 99.106 81.6192C98.7124 81.2639 98.2348 81.0145 97.7183 80.8947L78.9683 76.6134C78.4593 76.498 77.9296 76.5119 77.4274 76.6539C76.9252 76.7958 76.4665 77.0612 76.0933 77.4259C75.6558 77.8322 75.6245 77.8634 73.5933 81.7384C66.8533 78.6327 61.4526 73.2099 58.3745 66.4572C62.3433 64.4572 62.3745 64.4572 62.7808 63.9884C63.1455 63.6152 63.4109 63.1565 63.5528 62.6543C63.6948 62.1521 63.7087 61.6224 63.5933 61.1134L59.312 42.5822C59.1922 42.0656 58.9428 41.588 58.5875 41.1944C58.2321 40.8008 57.7824 40.5041 57.2808 40.3322C56.551 40.0715 55.7974 39.8831 55.0308 39.7697C54.2409 39.5865 53.4349 39.4819 52.6245 39.4572C48.812 39.4572 45.1557 40.9717 42.4599 43.6675C39.764 46.3634 38.2495 50.0197 38.2495 53.8322C38.266 66.5907 43.3417 78.8218 52.3633 87.8434C61.3849 96.865 73.616 101.941 86.3745 101.957C88.2623 101.957 90.1315 101.585 91.8756 100.863C93.6196 100.141 95.2043 99.0817 96.5392 97.7469C97.874 96.412 98.9329 94.8273 99.6553 93.0833C100.378 91.3392 100.75 89.4699 100.75 87.5822C100.75 86.7868 100.688 85.9926 100.562 85.2072C100.431 84.431 100.232 83.6677 99.9683 82.9259Z" fill="#FF0000"/>
</svg>
