<svg width="544" height="290" viewBox="0 0 544 290" fill="none" xmlns="http://www.w3.org/2000/svg">
<path d="M243.737 138.457C243.737 109.79 249.237 87.207 260.237 70.707C271.404 54.207 289.321 45.957 313.987 45.957C338.654 45.957 356.487 54.207 367.487 70.707C378.654 87.207 384.237 109.79 384.237 138.457C384.237 167.457 378.654 190.207 367.487 206.707C356.487 223.207 338.654 231.457 313.987 231.457C289.321 231.457 271.404 223.207 260.237 206.707C249.237 190.207 243.737 167.457 243.737 138.457ZM342.237 138.457C342.237 121.624 340.404 108.707 336.737 99.707C333.071 90.5404 325.487 85.957 313.987 85.957C302.487 85.957 294.904 90.5404 291.237 99.707C287.571 108.707 285.737 121.624 285.737 138.457C285.737 149.79 286.404 159.207 287.737 166.707C289.071 174.04 291.737 180.04 295.737 184.707C299.904 189.207 305.987 191.457 313.987 191.457C321.987 191.457 327.987 189.207 331.987 184.707C336.154 180.04 338.904 174.04 340.237 166.707C341.571 159.207 342.237 149.79 342.237 138.457ZM386.573 199.707V165.207L465.573 52.207H513.323V162.707H533.823V199.707H513.323V232.207H470.573V199.707H386.573ZM473.573 99.207L431.573 162.707H473.573V99.207Z" fill="#00FF57"/>
<path d="M25.0734 173.767C21.1801 173.767 17.6601 173.1 14.5134 171.767C11.4201 170.434 8.96677 168.514 7.15344 166.007C5.3401 163.5 4.40677 160.54 4.35344 157.127H16.3534C16.5134 159.42 17.3134 161.234 18.7534 162.567C20.2468 163.9 22.2734 164.567 24.8334 164.567C27.4468 164.567 29.5001 163.954 30.9934 162.727C32.4868 161.447 33.2334 159.794 33.2334 157.767C33.2334 156.114 32.7268 154.754 31.7134 153.687C30.7001 152.62 29.4201 151.794 27.8734 151.207C26.3801 150.567 24.3001 149.874 21.6334 149.127C18.0068 148.06 15.0468 147.02 12.7534 146.007C10.5134 144.94 8.56677 143.367 6.91344 141.287C5.31344 139.154 4.51344 136.327 4.51344 132.807C4.51344 129.5 5.3401 126.62 6.99344 124.167C8.64677 121.714 10.9668 119.847 13.9534 118.567C16.9401 117.234 20.3534 116.567 24.1934 116.567C29.9534 116.567 34.6201 117.98 38.1934 120.807C41.8201 123.58 43.8201 127.474 44.1934 132.487H31.8734C31.7668 130.567 30.9401 128.994 29.3934 127.767C27.9001 126.487 25.9001 125.847 23.3934 125.847C21.2068 125.847 19.4468 126.407 18.1134 127.527C16.8334 128.647 16.1934 130.274 16.1934 132.407C16.1934 133.9 16.6734 135.154 17.6334 136.167C18.6468 137.127 19.8734 137.927 21.3134 138.567C22.8068 139.154 24.8868 139.847 27.5534 140.647C31.1801 141.714 34.1401 142.78 36.4334 143.847C38.7268 144.914 40.7001 146.514 42.3534 148.647C44.0068 150.78 44.8334 153.58 44.8334 157.047C44.8334 160.034 44.0601 162.807 42.5134 165.367C40.9668 167.927 38.7001 169.98 35.7134 171.527C32.7268 173.02 29.1801 173.767 25.0734 173.767ZM96.3834 128.887V173.207H85.1034V167.607C83.6634 169.527 81.7701 171.047 79.4234 172.167C77.1301 173.234 74.6234 173.767 71.9034 173.767C68.4368 173.767 65.3701 173.047 62.7034 171.607C60.0368 170.114 57.9301 167.954 56.3834 165.127C54.8901 162.247 54.1434 158.834 54.1434 154.887V128.887H65.3434V153.287C65.3434 156.807 66.2234 159.527 67.9834 161.447C69.7434 163.314 72.1434 164.247 75.1834 164.247C78.2768 164.247 80.7034 163.314 82.4634 161.447C84.2234 159.527 85.1034 156.807 85.1034 153.287V128.887H96.3834ZM118.634 135.287C120.074 133.26 122.047 131.58 124.554 130.247C127.114 128.86 130.021 128.167 133.274 128.167C137.061 128.167 140.474 129.1 143.514 130.967C146.607 132.834 149.034 135.5 150.794 138.967C152.607 142.38 153.514 146.354 153.514 150.887C153.514 155.42 152.607 159.447 150.794 162.967C149.034 166.434 146.607 169.127 143.514 171.047C140.474 172.967 137.061 173.927 133.274 173.927C130.021 173.927 127.141 173.26 124.634 171.927C122.181 170.594 120.181 168.914 118.634 166.887V194.327H107.434V128.887H118.634V135.287ZM142.074 150.887C142.074 148.22 141.514 145.927 140.394 144.007C139.327 142.034 137.887 140.54 136.074 139.527C134.314 138.514 132.394 138.007 130.314 138.007C128.287 138.007 126.367 138.54 124.554 139.607C122.794 140.62 121.354 142.114 120.234 144.087C119.167 146.06 118.634 148.38 118.634 151.047C118.634 153.714 119.167 156.034 120.234 158.007C121.354 159.98 122.794 161.5 124.554 162.567C126.367 163.58 128.287 164.087 130.314 164.087C132.394 164.087 134.314 163.554 136.074 162.487C137.887 161.42 139.327 159.9 140.394 157.927C141.514 155.954 142.074 153.607 142.074 150.887ZM172.853 135.287C174.293 133.26 176.266 131.58 178.773 130.247C181.333 128.86 184.239 128.167 187.493 128.167C191.279 128.167 194.693 129.1 197.733 130.967C200.826 132.834 203.253 135.5 205.013 138.967C206.826 142.38 207.733 146.354 207.733 150.887C207.733 155.42 206.826 159.447 205.013 162.967C203.253 166.434 200.826 169.127 197.733 171.047C194.693 172.967 191.279 173.927 187.493 173.927C184.239 173.927 181.359 173.26 178.853 171.927C176.399 170.594 174.399 168.914 172.853 166.887V194.327H161.653V128.887H172.853V135.287ZM196.293 150.887C196.293 148.22 195.733 145.927 194.613 144.007C193.546 142.034 192.106 140.54 190.293 139.527C188.533 138.514 186.613 138.007 184.533 138.007C182.506 138.007 180.586 138.54 178.773 139.607C177.013 140.62 175.573 142.114 174.453 144.087C173.386 146.06 172.853 148.38 172.853 151.047C172.853 153.714 173.386 156.034 174.453 158.007C175.573 159.98 177.013 161.5 178.773 162.567C180.586 163.58 182.506 164.087 184.533 164.087C186.613 164.087 188.533 163.554 190.293 162.487C192.106 161.42 193.546 159.9 194.613 157.927C195.733 155.954 196.293 153.607 196.293 150.887ZM235.552 173.927C231.285 173.927 227.445 172.994 224.032 171.127C220.618 169.207 217.925 166.514 215.952 163.047C214.032 159.58 213.072 155.58 213.072 151.047C213.072 146.514 214.058 142.514 216.032 139.047C218.058 135.58 220.805 132.914 224.272 131.047C227.738 129.127 231.605 128.167 235.872 128.167C240.138 128.167 244.005 129.127 247.472 131.047C250.938 132.914 253.658 135.58 255.632 139.047C257.658 142.514 258.672 146.514 258.672 151.047C258.672 155.58 257.632 159.58 255.552 163.047C253.525 166.514 250.752 169.207 247.232 171.127C243.765 172.994 239.872 173.927 235.552 173.927ZM235.552 164.167C237.578 164.167 239.472 163.687 241.232 162.727C243.045 161.714 244.485 160.22 245.552 158.247C246.618 156.274 247.152 153.874 247.152 151.047C247.152 146.834 246.032 143.607 243.792 141.367C241.605 139.074 238.912 137.927 235.712 137.927C232.512 137.927 229.818 139.074 227.632 141.367C225.498 143.607 224.432 146.834 224.432 151.047C224.432 155.26 225.472 158.514 227.552 160.807C229.685 163.047 232.352 164.167 235.552 164.167ZM278.087 135.767C279.527 133.42 281.394 131.58 283.687 130.247C286.034 128.914 288.701 128.247 291.687 128.247V140.007H288.727C285.207 140.007 282.541 140.834 280.727 142.487C278.967 144.14 278.087 147.02 278.087 151.127V173.207H266.887V128.887H278.087V135.767ZM312.271 138.087V159.527C312.271 161.02 312.618 162.114 313.311 162.807C314.058 163.447 315.284 163.767 316.991 163.767H322.191V173.207H315.151C305.711 173.207 300.991 168.62 300.991 159.447V138.087H295.711V128.887H300.991V117.927H312.271V128.887H322.191V138.087H312.271Z" fill="white"/>
</svg>
