<svg width="101" height="101" viewBox="0 0 101 101" fill="none" xmlns="http://www.w3.org/2000/svg">
<path d="M91.3456 66.5721C91.1166 65.9004 90.7212 65.2983 90.1968 64.8225C89.6723 64.3467 89.036 64.0128 88.3478 63.8523L63.366 58.1199C62.6879 57.9653 61.982 57.9839 61.3129 58.174C60.6438 58.364 60.0327 58.7194 59.5354 59.2078C58.9525 59.7517 58.9109 59.7936 56.2045 64.9821C47.2244 60.8236 40.0287 53.5626 35.9276 44.5209C41.2154 41.843 41.257 41.843 41.7983 41.2153C42.2843 40.7155 42.6379 40.1014 42.827 39.429C43.0161 38.7566 43.0346 38.0472 42.8809 37.3658L37.1767 12.5529C37.017 11.8613 36.6848 11.2218 36.2113 10.6947C35.7379 10.1677 35.1387 9.7704 34.4703 9.54025C33.498 9.19124 32.4939 8.93897 31.4725 8.78708C30.4201 8.54186 29.3463 8.40171 28.2665 8.36865C23.1869 8.36865 18.3153 10.3965 14.7235 14.0062C11.1316 17.6158 9.11377 22.5116 9.11377 27.6164C9.1358 44.6996 15.8984 61.0768 27.9184 73.1565C39.9385 85.2362 56.2349 92.0323 73.2338 92.0544C75.7489 92.0544 78.2395 91.5566 80.5632 90.5893C82.8869 89.622 84.9983 88.2042 86.7768 86.4169C88.5553 84.6296 89.9661 82.5077 90.9286 80.1725C91.8911 77.8372 92.3865 75.3344 92.3865 72.8067C92.3878 71.7417 92.3043 70.6783 92.1367 69.6266C91.9617 68.5873 91.697 67.5653 91.3456 66.5721Z" fill="white"/>
</svg>
