<svg width="225" height="74" viewBox="0 0 225 74" fill="none" xmlns="http://www.w3.org/2000/svg">
<path d="M7.18379 0.68171C2.72639 2.60676 1.75195 4.60845 0.476562 8.44675V38.0976L37.5407 0.68171H7.18379Z" fill="#F57842"/>
<path d="M85.5465 0.68171H50.6011C46.5626 -1.24037 23.3531 26.4406 0.476562 50.099V72.337C11.4489 72.9789 17.1247 70.755 26.2452 61.3945L85.5465 0.68171Z" fill="#F57842"/>
<path d="M63.7704 50.9248L37.5407 50.099L57.1469 73.4139L86.4135 72.337L63.7704 50.9248Z" fill="#F57842"/>
<path d="M103.476 18.1836H107.414L116.273 36.5H112.371L110.906 33.418H100.207L98.7889 36.5H94.8748L103.476 18.1836ZM109.441 30.3594L105.48 22.0391L101.625 30.3594H109.441ZM122.782 42.1484H119.314V22.6719H122.782V23.9727C123.087 23.7617 123.446 23.5625 123.86 23.375C124.274 23.1875 124.72 23.0234 125.196 22.8828C125.673 22.7422 126.165 22.6328 126.673 22.5547C127.181 22.4688 127.689 22.4258 128.196 22.4258C129.368 22.4258 130.442 22.5977 131.419 22.9414C132.403 23.2852 133.247 23.7695 133.95 24.3945C134.653 25.0195 135.2 25.7695 135.591 26.6445C135.989 27.5117 136.189 28.4727 136.189 29.5273C136.189 30.6289 135.982 31.625 135.567 32.5156C135.153 33.3984 134.579 34.1562 133.845 34.7891C133.118 35.4141 132.251 35.8984 131.243 36.2422C130.243 36.5781 129.157 36.7461 127.985 36.7461C127.485 36.7461 126.989 36.7148 126.497 36.6523C126.013 36.5898 125.544 36.5039 125.091 36.3945C124.646 36.2852 124.224 36.1562 123.825 36.0078C123.435 35.8516 123.087 35.6836 122.782 35.5039V42.1484ZM122.782 32.1523C123.134 32.4336 123.505 32.6719 123.896 32.8672C124.286 33.0625 124.685 33.2227 125.091 33.3477C125.497 33.4727 125.907 33.5664 126.321 33.6289C126.735 33.6836 127.138 33.7109 127.528 33.7109C128.325 33.7109 129.032 33.6055 129.649 33.3945C130.274 33.1758 130.798 32.8789 131.22 32.5039C131.649 32.1289 131.978 31.6875 132.204 31.1797C132.431 30.6719 132.544 30.1211 132.544 29.5273C132.544 28.9727 132.431 28.4492 132.204 27.957C131.985 27.4648 131.665 27.0352 131.243 26.668C130.829 26.293 130.325 26 129.732 25.7891C129.146 25.5703 128.485 25.4609 127.751 25.4609C127.282 25.4609 126.814 25.5078 126.345 25.6016C125.876 25.6875 125.423 25.8125 124.985 25.9766C124.556 26.1406 124.149 26.3398 123.767 26.5742C123.392 26.8086 123.064 27.0703 122.782 27.3594V32.1523ZM143.565 42.1484H140.096V22.6719H143.565V23.9727C143.869 23.7617 144.229 23.5625 144.643 23.375C145.057 23.1875 145.502 23.0234 145.979 22.8828C146.455 22.7422 146.948 22.6328 147.455 22.5547C147.963 22.4688 148.471 22.4258 148.979 22.4258C150.151 22.4258 151.225 22.5977 152.202 22.9414C153.186 23.2852 154.03 23.7695 154.733 24.3945C155.436 25.0195 155.983 25.7695 156.373 26.6445C156.772 27.5117 156.971 28.4727 156.971 29.5273C156.971 30.6289 156.764 31.625 156.35 32.5156C155.936 33.3984 155.362 34.1562 154.627 34.7891C153.901 35.4141 153.034 35.8984 152.026 36.2422C151.026 36.5781 149.94 36.7461 148.768 36.7461C148.268 36.7461 147.772 36.7148 147.28 36.6523C146.795 36.5898 146.327 36.5039 145.873 36.3945C145.428 36.2852 145.006 36.1562 144.608 36.0078C144.217 35.8516 143.869 35.6836 143.565 35.5039V42.1484ZM143.565 32.1523C143.916 32.4336 144.287 32.6719 144.678 32.8672C145.069 33.0625 145.467 33.2227 145.873 33.3477C146.28 33.4727 146.69 33.5664 147.104 33.6289C147.518 33.6836 147.92 33.7109 148.311 33.7109C149.108 33.7109 149.815 33.6055 150.432 33.3945C151.057 33.1758 151.58 32.8789 152.002 32.5039C152.432 32.1289 152.76 31.6875 152.987 31.1797C153.213 30.6719 153.327 30.1211 153.327 29.5273C153.327 28.9727 153.213 28.4492 152.987 27.957C152.768 27.4648 152.448 27.0352 152.026 26.668C151.612 26.293 151.108 26 150.514 25.7891C149.928 25.5703 149.268 25.4609 148.534 25.4609C148.065 25.4609 147.596 25.5078 147.127 25.6016C146.659 25.6875 146.205 25.8125 145.768 25.9766C145.338 26.1406 144.932 26.3398 144.549 26.5742C144.174 26.8086 143.846 27.0703 143.565 27.3594V32.1523ZM161.406 18.1836H165.121V27.6641L174.789 18.1836H179.547L170.523 26.9258L179.547 36.5H174.601L167.851 29.5156L165.121 32.1523V36.5H161.406V18.1836ZM187.708 31.9648L179.704 18.1836H183.911L189.548 28.6016L195.114 18.1836H199.321L191.423 31.9414V36.5H187.708V31.9648ZM201.74 27.2305C201.74 25.9258 201.987 24.7109 202.479 23.5859C202.971 22.4531 203.682 21.4727 204.612 20.6445C205.549 19.8086 206.69 19.1523 208.033 18.6758C209.385 18.1992 210.912 17.9609 212.615 17.9609C214.108 17.9609 215.475 18.1133 216.717 18.418C217.967 18.7148 219.127 19.1719 220.197 19.7891L218.487 22.6016C218.166 22.3906 217.795 22.2031 217.373 22.0391C216.959 21.875 216.514 21.7383 216.037 21.6289C215.569 21.5117 215.08 21.4219 214.572 21.3594C214.072 21.2969 213.576 21.2656 213.084 21.2656C211.897 21.2656 210.838 21.4141 209.908 21.7109C208.979 22 208.194 22.4102 207.553 22.9414C206.92 23.4648 206.436 24.0938 206.1 24.8281C205.772 25.5547 205.608 26.3555 205.608 27.2305C205.608 28.1367 205.779 28.9688 206.123 29.7266C206.467 30.4844 206.963 31.1406 207.612 31.6953C208.268 32.2422 209.065 32.6719 210.002 32.9844C210.947 33.2891 212.014 33.4414 213.201 33.4414C213.74 33.4414 214.276 33.4023 214.807 33.3242C215.338 33.2461 215.85 33.1406 216.342 33.0078C216.842 32.8672 217.322 32.7031 217.783 32.5156C218.244 32.3203 218.674 32.1094 219.072 31.8828L220.783 34.6953C219.783 35.3359 218.627 35.8398 217.315 36.207C216.002 36.5664 214.608 36.7461 213.131 36.7461C211.248 36.7461 209.596 36.5039 208.174 36.0195C206.752 35.5273 205.565 34.8555 204.612 34.0039C203.658 33.1445 202.94 32.1367 202.455 30.9805C201.979 29.8164 201.74 28.5664 201.74 27.2305Z" fill="black"/>
<path d="M93.3719 58.5V49.7727H94.6887V53.9403H94.7952L98.4557 49.7727H100.113L96.5935 53.7017L100.126 58.5H98.5409L95.7199 54.6009L94.6887 55.7855V58.5H93.3719ZM102.873 54.6136V58.5H101.598V51.9545H102.821V53.0199H102.902C103.053 52.6733 103.289 52.3949 103.61 52.1847C103.934 51.9744 104.341 51.8693 104.833 51.8693C105.279 51.8693 105.669 51.9631 106.005 52.1506C106.34 52.3352 106.6 52.6108 106.784 52.9773C106.969 53.3437 107.061 53.7969 107.061 54.3366V58.5H105.787V54.4901C105.787 54.0156 105.664 53.6449 105.417 53.3778C105.169 53.108 104.83 52.973 104.398 52.973C104.103 52.973 103.84 53.0369 103.61 53.1648C103.382 53.2926 103.202 53.4801 103.069 53.7273C102.938 53.9716 102.873 54.267 102.873 54.6136ZM111.887 58.6321C111.274 58.6321 110.738 58.4915 110.281 58.2102C109.823 57.929 109.468 57.5355 109.215 57.0298C108.963 56.5241 108.836 55.9332 108.836 55.2571C108.836 54.5781 108.963 53.9844 109.215 53.4759C109.468 52.9673 109.823 52.5724 110.281 52.2912C110.738 52.0099 111.274 51.8693 111.887 51.8693C112.501 51.8693 113.036 52.0099 113.494 52.2912C113.951 52.5724 114.306 52.9673 114.559 53.4759C114.812 53.9844 114.938 54.5781 114.938 55.2571C114.938 55.9332 114.812 56.5241 114.559 57.0298C114.306 57.5355 113.951 57.929 113.494 58.2102C113.036 58.4915 112.501 58.6321 111.887 58.6321ZM111.892 57.5625C112.289 57.5625 112.619 57.4574 112.88 57.2472C113.142 57.0369 113.335 56.7571 113.46 56.4077C113.588 56.0582 113.652 55.6733 113.652 55.2528C113.652 54.8352 113.588 54.4517 113.46 54.1023C113.335 53.75 113.142 53.4673 112.88 53.2543C112.619 53.0412 112.289 52.9347 111.892 52.9347C111.491 52.9347 111.159 53.0412 110.894 53.2543C110.633 53.4673 110.438 53.75 110.311 54.1023C110.186 54.4517 110.123 54.8352 110.123 55.2528C110.123 55.6733 110.186 56.0582 110.311 56.4077C110.438 56.7571 110.633 57.0369 110.894 57.2472C111.159 57.4574 111.491 57.5625 111.892 57.5625ZM117.941 58.5L116.014 51.9545H117.331L118.614 56.7614H118.678L119.965 51.9545H121.281L122.56 56.7401H122.624L123.898 51.9545H125.215L123.293 58.5H121.993L120.664 53.7741H120.566L119.236 58.5H117.941ZM129.749 49.7727H131.244L133.524 53.7401H133.618L135.898 49.7727H137.393L134.227 55.0739V58.5H132.915V55.0739L129.749 49.7727ZM140.573 58.6321C139.96 58.6321 139.424 58.4915 138.967 58.2102C138.51 57.929 138.154 57.5355 137.902 57.0298C137.649 56.5241 137.522 55.9332 137.522 55.2571C137.522 54.5781 137.649 53.9844 137.902 53.4759C138.154 52.9673 138.51 52.5724 138.967 52.2912C139.424 52.0099 139.96 51.8693 140.573 51.8693C141.187 51.8693 141.723 52.0099 142.18 52.2912C142.637 52.5724 142.992 52.9673 143.245 53.4759C143.498 53.9844 143.625 54.5781 143.625 55.2571C143.625 55.9332 143.498 56.5241 143.245 57.0298C142.992 57.5355 142.637 57.929 142.18 58.2102C141.723 58.4915 141.187 58.6321 140.573 58.6321ZM140.578 57.5625C140.975 57.5625 141.305 57.4574 141.566 57.2472C141.828 57.0369 142.021 56.7571 142.146 56.4077C142.274 56.0582 142.338 55.6733 142.338 55.2528C142.338 54.8352 142.274 54.4517 142.146 54.1023C142.021 53.75 141.828 53.4673 141.566 53.2543C141.305 53.0412 140.975 52.9347 140.578 52.9347C140.177 52.9347 139.845 53.0412 139.581 53.2543C139.319 53.4673 139.125 53.75 138.997 54.1023C138.872 54.4517 138.809 54.8352 138.809 55.2528C138.809 55.6733 138.872 56.0582 138.997 56.4077C139.125 56.7571 139.319 57.0369 139.581 57.2472C139.845 57.4574 140.177 57.5625 140.578 57.5625ZM149.553 55.7855V51.9545H150.832V58.5H149.579V57.3665H149.511C149.36 57.7159 149.118 58.0071 148.786 58.2401C148.457 58.4702 148.046 58.5852 147.555 58.5852C147.134 58.5852 146.762 58.4929 146.438 58.3082C146.117 58.1207 145.864 57.8438 145.68 57.4773C145.498 57.1108 145.407 56.6577 145.407 56.1179V51.9545H146.681V55.9645C146.681 56.4105 146.805 56.7656 147.052 57.0298C147.299 57.294 147.62 57.4261 148.015 57.4261C148.253 57.4261 148.491 57.3665 148.726 57.2472C148.965 57.1278 149.162 56.9474 149.319 56.706C149.478 56.4645 149.556 56.1577 149.553 55.7855ZM152.904 58.5V51.9545H154.135V52.9943H154.203C154.323 52.642 154.533 52.3651 154.834 52.1634C155.138 51.9588 155.482 51.8565 155.865 51.8565C155.945 51.8565 156.038 51.8594 156.146 51.8651C156.257 51.8707 156.344 51.8778 156.406 51.8864V53.1051C156.355 53.0909 156.264 53.0753 156.134 53.0582C156.003 53.0384 155.872 53.0284 155.742 53.0284C155.44 53.0284 155.172 53.0923 154.936 53.2202C154.703 53.3452 154.519 53.5199 154.382 53.7443C154.246 53.9659 154.178 54.2187 154.178 54.5028V58.5H152.904ZM168.756 52.6108H167.426C167.375 52.3267 167.28 52.0767 167.141 51.8608C167.001 51.6449 166.831 51.4616 166.629 51.3111C166.428 51.1605 166.202 51.0469 165.952 50.9702C165.704 50.8935 165.442 50.8551 165.163 50.8551C164.66 50.8551 164.21 50.9815 163.812 51.2344C163.418 51.4872 163.105 51.858 162.875 52.3466C162.648 52.8352 162.534 53.4318 162.534 54.1364C162.534 54.8466 162.648 55.446 162.875 55.9347C163.105 56.4233 163.419 56.7926 163.817 57.0426C164.214 57.2926 164.662 57.4176 165.159 57.4176C165.435 57.4176 165.696 57.3807 165.943 57.3068C166.193 57.2301 166.419 57.1179 166.621 56.9702C166.822 56.8224 166.993 56.642 167.132 56.429C167.274 56.2131 167.372 55.9659 167.426 55.6875L168.756 55.6918C168.685 56.1207 168.547 56.5156 168.342 56.8764C168.141 57.2344 167.881 57.544 167.562 57.8054C167.247 58.0639 166.886 58.2642 166.48 58.4062C166.074 58.5483 165.631 58.6193 165.151 58.6193C164.395 58.6193 163.722 58.4403 163.131 58.0824C162.54 57.7216 162.074 57.206 161.733 56.5355C161.395 55.8651 161.226 55.0653 161.226 54.1364C161.226 53.2045 161.396 52.4048 161.737 51.7372C162.078 51.0668 162.544 50.5526 163.135 50.1946C163.726 49.8338 164.398 49.6534 165.151 49.6534C165.614 49.6534 166.045 49.7202 166.446 49.8537C166.849 49.9844 167.212 50.1776 167.533 50.4332C167.854 50.6861 168.119 50.9957 168.329 51.3622C168.54 51.7259 168.682 52.142 168.756 52.6108ZM170.589 58.5V51.9545H171.863V58.5H170.589ZM171.232 50.9446C171.011 50.9446 170.821 50.8707 170.661 50.723C170.505 50.5724 170.427 50.3935 170.427 50.1861C170.427 49.9759 170.505 49.7969 170.661 49.6491C170.821 49.4986 171.011 49.4233 171.232 49.4233C171.454 49.4233 171.643 49.4986 171.799 49.6491C171.958 49.7969 172.038 49.9759 172.038 50.1861C172.038 50.3935 171.958 50.5724 171.799 50.723C171.643 50.8707 171.454 50.9446 171.232 50.9446ZM176.993 51.9545V52.9773H173.417V51.9545H176.993ZM174.376 50.3864H175.65V56.5781C175.65 56.8253 175.687 57.0114 175.761 57.1364C175.835 57.2585 175.93 57.3423 176.047 57.3878C176.166 57.4304 176.295 57.4517 176.434 57.4517C176.537 57.4517 176.626 57.4446 176.703 57.4304C176.78 57.4162 176.839 57.4048 176.882 57.3963L177.112 58.4489C177.038 58.4773 176.933 58.5057 176.797 58.5341C176.66 58.5653 176.49 58.5824 176.285 58.5852C175.95 58.5909 175.638 58.5312 175.348 58.4062C175.058 58.2812 174.824 58.0881 174.645 57.8267C174.466 57.5653 174.376 57.2372 174.376 56.8423V50.3864ZM179.568 60.9545C179.377 60.9545 179.204 60.9389 179.048 60.9077C178.891 60.8793 178.775 60.848 178.698 60.8139L179.005 59.7699C179.238 59.8324 179.445 59.8594 179.627 59.8509C179.809 59.8423 179.97 59.7741 180.109 59.6463C180.251 59.5185 180.376 59.3097 180.484 59.0199L180.641 58.5852L178.246 51.9545H179.61L181.268 57.0341H181.336L182.994 51.9545H184.362L181.664 59.3736C181.539 59.7145 181.38 60.0028 181.187 60.2386C180.994 60.4773 180.764 60.6563 180.496 60.7756C180.229 60.8949 179.92 60.9545 179.568 60.9545Z" fill="#F57842"/>
</svg>
