<svg width="542" height="290" viewBox="0 0 542 290" fill="none" xmlns="http://www.w3.org/2000/svg">
<path d="M11.5234 138.457C11.5234 109.79 17.0234 87.207 28.0234 70.707C39.1901 54.207 57.1068 45.957 81.7734 45.957C106.44 45.957 124.273 54.207 135.273 70.707C146.44 87.207 152.023 109.79 152.023 138.457C152.023 167.457 146.44 190.207 135.273 206.707C124.273 223.207 106.44 231.457 81.7734 231.457C57.1068 231.457 39.1901 223.207 28.0234 206.707C17.0234 190.207 11.5234 167.457 11.5234 138.457ZM110.023 138.457C110.023 121.624 108.19 108.707 104.523 99.707C100.857 90.5404 93.2734 85.957 81.7734 85.957C70.2734 85.957 62.6901 90.5404 59.0234 99.707C55.3568 108.707 53.5234 121.624 53.5234 138.457C53.5234 149.79 54.1901 159.207 55.5234 166.707C56.8568 174.04 59.5234 180.04 63.5234 184.707C67.6901 189.207 73.7734 191.457 81.7734 191.457C89.7734 191.457 95.7734 189.207 99.7734 184.707C103.94 180.04 106.69 174.04 108.023 166.707C109.357 159.207 110.023 149.79 110.023 138.457ZM176.109 101.207C176.776 83.3737 182.609 69.6237 193.609 59.957C204.609 50.2904 219.526 45.457 238.359 45.457C250.859 45.457 261.526 47.6237 270.359 51.957C279.359 56.2904 286.109 62.207 290.609 69.707C295.276 77.207 297.609 85.6237 297.609 94.957C297.609 105.957 294.859 114.957 289.359 121.957C283.859 128.79 277.443 133.457 270.109 135.957V136.957C279.609 140.124 287.109 145.374 292.609 152.707C298.109 160.04 300.859 169.457 300.859 180.957C300.859 191.29 298.443 200.457 293.609 208.457C288.943 216.29 282.026 222.457 272.859 226.957C263.859 231.457 253.109 233.707 240.609 233.707C220.609 233.707 204.609 228.79 192.609 218.957C180.776 209.124 174.526 194.29 173.859 174.457H215.359C215.526 181.79 217.609 187.624 221.609 191.957C225.609 196.124 231.443 198.207 239.109 198.207C245.609 198.207 250.609 196.374 254.109 192.707C257.776 188.874 259.609 183.874 259.609 177.707C259.609 169.707 257.026 163.957 251.859 160.457C246.859 156.79 238.776 154.957 227.609 154.957H219.609V120.207H227.609C236.109 120.207 242.943 118.79 248.109 115.957C253.443 112.957 256.109 107.707 256.109 100.207C256.109 94.207 254.443 89.5404 251.109 86.207C247.776 82.8737 243.193 81.207 237.359 81.207C231.026 81.207 226.276 83.1237 223.109 86.957C220.109 90.7904 218.359 95.5404 217.859 101.207H176.109Z" fill="#00FFF0"/>
<path d="M235.298 117.367C241.164 117.367 246.311 118.514 250.738 120.807C255.218 123.1 258.658 126.38 261.058 130.647C263.511 134.86 264.738 139.767 264.738 145.367C264.738 150.967 263.511 155.874 261.058 160.087C258.658 164.247 255.218 167.474 250.738 169.767C246.311 172.06 241.164 173.207 235.298 173.207H215.778V117.367H235.298ZM234.898 163.687C240.764 163.687 245.298 162.087 248.498 158.887C251.698 155.687 253.298 151.18 253.298 145.367C253.298 139.554 251.698 135.02 248.498 131.767C245.298 128.46 240.764 126.807 234.898 126.807H226.978V163.687H234.898ZM314.322 150.087C314.322 151.687 314.215 153.127 314.002 154.407H281.602C281.868 157.607 282.988 160.114 284.962 161.927C286.935 163.74 289.362 164.647 292.242 164.647C296.402 164.647 299.362 162.86 301.122 159.287H313.202C311.922 163.554 309.468 167.074 305.842 169.847C302.215 172.567 297.762 173.927 292.482 173.927C288.215 173.927 284.375 172.994 280.962 171.127C277.602 169.207 274.962 166.514 273.042 163.047C271.175 159.58 270.242 155.58 270.242 151.047C270.242 146.46 271.175 142.434 273.042 138.967C274.908 135.5 277.522 132.834 280.882 130.967C284.242 129.1 288.108 128.167 292.482 128.167C296.695 128.167 300.455 129.074 303.762 130.887C307.122 132.7 309.708 135.287 311.522 138.647C313.388 141.954 314.322 145.767 314.322 150.087ZM302.722 146.887C302.668 144.007 301.628 141.714 299.602 140.007C297.575 138.247 295.095 137.367 292.162 137.367C289.388 137.367 287.042 138.22 285.122 139.927C283.255 141.58 282.108 143.9 281.682 146.887H302.722ZM340.977 162.887L352.177 128.887H364.097L347.697 173.207H334.097L317.777 128.887H329.777L340.977 162.887ZM411.587 150.087C411.587 151.687 411.481 153.127 411.267 154.407H378.867C379.134 157.607 380.254 160.114 382.227 161.927C384.201 163.74 386.627 164.647 389.507 164.647C393.667 164.647 396.627 162.86 398.387 159.287H410.467C409.187 163.554 406.734 167.074 403.107 169.847C399.481 172.567 395.027 173.927 389.747 173.927C385.481 173.927 381.641 172.994 378.227 171.127C374.867 169.207 372.227 166.514 370.307 163.047C368.441 159.58 367.507 155.58 367.507 151.047C367.507 146.46 368.441 142.434 370.307 138.967C372.174 135.5 374.787 132.834 378.147 130.967C381.507 129.1 385.374 128.167 389.747 128.167C393.961 128.167 397.721 129.074 401.027 130.887C404.387 132.7 406.974 135.287 408.787 138.647C410.654 141.954 411.587 145.767 411.587 150.087ZM399.987 146.887C399.934 144.007 398.894 141.714 396.867 140.007C394.841 138.247 392.361 137.367 389.427 137.367C386.654 137.367 384.307 138.22 382.387 139.927C380.521 141.58 379.374 143.9 378.947 146.887H399.987ZM430.962 114.007V173.207H419.762V114.007H430.962ZM461.708 173.927C457.441 173.927 453.601 172.994 450.188 171.127C446.774 169.207 444.081 166.514 442.108 163.047C440.188 159.58 439.228 155.58 439.228 151.047C439.228 146.514 440.214 142.514 442.188 139.047C444.214 135.58 446.961 132.914 450.428 131.047C453.894 129.127 457.761 128.167 462.028 128.167C466.294 128.167 470.161 129.127 473.628 131.047C477.094 132.914 479.814 135.58 481.788 139.047C483.814 142.514 484.828 146.514 484.828 151.047C484.828 155.58 483.788 159.58 481.708 163.047C479.681 166.514 476.908 169.207 473.388 171.127C469.921 172.994 466.028 173.927 461.708 173.927ZM461.708 164.167C463.734 164.167 465.628 163.687 467.388 162.727C469.201 161.714 470.641 160.22 471.708 158.247C472.774 156.274 473.308 153.874 473.308 151.047C473.308 146.834 472.188 143.607 469.948 141.367C467.761 139.074 465.068 137.927 461.868 137.927C458.668 137.927 455.974 139.074 453.788 141.367C451.654 143.607 450.588 146.834 450.588 151.047C450.588 155.26 451.628 158.514 453.708 160.807C455.841 163.047 458.508 164.167 461.708 164.167ZM504.243 135.287C505.683 133.26 507.657 131.58 510.163 130.247C512.723 128.86 515.63 128.167 518.883 128.167C522.67 128.167 526.083 129.1 529.123 130.967C532.217 132.834 534.643 135.5 536.403 138.967C538.217 142.38 539.123 146.354 539.123 150.887C539.123 155.42 538.217 159.447 536.403 162.967C534.643 166.434 532.217 169.127 529.123 171.047C526.083 172.967 522.67 173.927 518.883 173.927C515.63 173.927 512.75 173.26 510.243 171.927C507.79 170.594 505.79 168.914 504.243 166.887V194.327H493.043V128.887H504.243V135.287ZM527.683 150.887C527.683 148.22 527.123 145.927 526.003 144.007C524.937 142.034 523.497 140.54 521.683 139.527C519.923 138.514 518.003 138.007 515.923 138.007C513.897 138.007 511.977 138.54 510.163 139.607C508.403 140.62 506.963 142.114 505.843 144.087C504.777 146.06 504.243 148.38 504.243 151.047C504.243 153.714 504.777 156.034 505.843 158.007C506.963 159.98 508.403 161.5 510.163 162.567C511.977 163.58 513.897 164.087 515.923 164.087C518.003 164.087 519.923 163.554 521.683 162.487C523.497 161.42 524.937 159.9 526.003 157.927C527.123 155.954 527.683 153.607 527.683 150.887Z" fill="white"/>
</svg>
