<svg width="100" height="100" viewBox="0 0 100 100" fill="none" xmlns="http://www.w3.org/2000/svg">
<g clip-path="url(#clip0_1_153)">
<path d="M80.6658 43.0718H44.8457V99.9999H80.6658V43.0718Z" fill="#E6E6E6"/>
<path d="M80.6658 0H44.8457V35.8201H80.6658V0Z" fill="#F7B239"/>
<path d="M37.7567 64.1799V100H1.93408V90.1563V64.1799H37.7567Z" fill="#2BA5F7"/>
<path d="M37.7567 0H1.93408V56.9307H37.7567V0Z" fill="#E6E6E6"/>
<path d="M23.5592 87.0789L35.301 100H25.7807L18.7979 92.3179L23.5592 87.0789Z" fill="#E09B2D"/>
<path d="M26.619 70.3269C29.7212 70.3269 32.2337 72.8394 32.2337 75.9416C32.2337 79.0412 29.7212 81.5562 26.619 81.5562C23.5194 81.5562 21.0044 79.0412 21.0044 75.9416C21.0044 72.8394 23.5194 70.3269 26.619 70.3269Z" fill="#F95428"/>
<path d="M18.7981 92.3179L25.781 100H1.93408V90.1562L9.38213 81.9617L18.7981 92.3179Z" fill="#F7B239"/>
<path d="M64.6218 6.71631H60.8903H51.7485V14.9255H55.48V10.4479H60.8903V25.7462H57.1589V29.4778H60.8903H64.6218H68.353V25.7462H64.6218V10.4479H70.0319V14.9255H73.7636V6.71631H64.6218Z" fill="#C93A27"/>
<path d="M31.04 6.77881H14.6221V9.76397H31.04V6.77881Z" fill="#808080"/>
<path d="M31.0399 14.8562H8.65186V17.8414H31.0399V14.8562Z" fill="#808080"/>
<path d="M31.0399 22.9338H8.65186V25.919H31.0399V22.9338Z" fill="#808080"/>
<path d="M31.0399 31.0115H8.65186V33.9966H31.0399V31.0115Z" fill="#808080"/>
<path d="M31.0399 39.0889H8.65186V42.074H31.0399V39.0889Z" fill="#808080"/>
<path d="M19.846 47.1665H8.65186V50.1517H19.846V47.1665Z" fill="#808080"/>
<path d="M73.9507 49.8481H57.5327V52.8333H73.9507V49.8481Z" fill="#808080"/>
<path d="M73.9506 57.9258H51.5625V60.9109H73.9506V57.9258Z" fill="#808080"/>
<path d="M73.9506 66.0032H51.5625V68.9883H73.9506V66.0032Z" fill="#808080"/>
<path d="M73.9506 74.0808H51.5625V77.066H73.9506V74.0808Z" fill="#808080"/>
<path d="M73.9506 82.1582H51.5625V85.1434H73.9506V82.1582Z" fill="#808080"/>
<path d="M62.7566 90.2356H51.5625V93.2208H62.7566V90.2356Z" fill="#808080"/>
<path d="M94.4581 9.89712H98.0661L92.9653 0.000244141L87.8647 9.89712H91.4728V90.1034H87.8647L92.9653 100L98.0661 90.1034H94.4581V9.89712Z" fill="#F7B239"/>
</g>
<defs>
<clipPath id="clip0_1_153">
<rect width="100" height="100" fill="white"/>
</clipPath>
</defs>
</svg>
