<svg width="170" height="170" viewBox="0 0 170 170" fill="none" xmlns="http://www.w3.org/2000/svg">
<circle cx="85" cy="85" r="82" stroke="#D9D9D9" stroke-width="6"/>
<circle cx="85" cy="85" r="75" fill="#D9D9D9"/>
<g clip-path="url(#clip0_1_178)">
<path d="M85 135C112.614 135 135 112.614 135 85C135 57.3858 112.614 35 85 35C57.3858 35 35 57.3858 35 85C35 112.614 57.3858 135 85 135Z" fill="#FAD24D"/>
<path d="M84.9998 120.16C104.662 120.16 120.602 118.903 120.602 117.353C120.602 115.803 104.662 114.546 84.9998 114.546C65.3372 114.546 49.3975 115.803 49.3975 117.353C49.3975 118.903 65.3372 120.16 84.9998 120.16Z" fill="#EDB937"/>
<path d="M47.8872 48.1296H122.113C124.552 48.1296 126.547 50.1249 126.547 52.5636V98.2876H43.4536V52.5634C43.4536 50.1247 45.4489 48.1294 47.8876 48.1294L47.8872 48.1296Z" fill="#666666"/>
<path d="M46.4634 95.2768H123.535V52.5633C123.535 51.7862 122.889 51.1399 122.113 51.1399H47.8868C47.1101 51.1399 46.464 51.7862 46.464 52.5633V95.2768H46.4634Z" fill="white"/>
<path d="M126.546 98.2874V103.136C126.546 105.575 124.347 107.57 121.659 107.57H48.3411C45.6528 107.57 43.4536 105.575 43.4536 103.136V98.2874H126.547H126.546Z" fill="white"/>
<path d="M85.0002 104.262C85.8433 104.262 86.5268 103.578 86.5268 102.735C86.5268 101.892 85.8433 101.208 85.0002 101.208C84.1571 101.208 83.4736 101.892 83.4736 102.735C83.4736 103.578 84.1571 104.262 85.0002 104.262Z" fill="#B6B6B8"/>
<path d="M94.583 114.546L101.633 116.804H68.3662L74.0543 114.546V107.57H94.5826V114.546H94.583Z" fill="#C2C2C4"/>
<path d="M74.0548 114.545H94.5833L101.633 116.804V117.777H85.0003H68.3667V116.804L74.0548 114.545Z" fill="#ECF0F1"/>
<path d="M74.0547 107.57H94.5832V114.545L74.0547 107.57Z" fill="#919191"/>
<path d="M57.7719 54.043H49.8145V55.4133H57.7719V54.043Z" fill="#20D0C2"/>
<path d="M72.8069 54.043H58.6919V55.4133H72.8069V54.043Z" fill="#FF5B62"/>
<path d="M85.5049 54.043H73.4873V55.4133H85.5049V54.043Z" fill="#FAD24D"/>
<path d="M62.3952 59.6802H58.1733V61.0505H62.3952V59.6802Z" fill="#FAD24D"/>
<path d="M70.3721 59.6802H62.8828V61.0505H70.3721V59.6802Z" fill="#FF5B62"/>
<path d="M77.1083 59.6802H70.7329V61.0505H77.1083V59.6802Z" fill="#20D0C2"/>
<path d="M57.1813 62.0876H49.7642V63.458H57.1813V62.0876Z" fill="#20D0C2"/>
<path d="M71.191 62.0876H58.0371V63.458H71.191V62.0876Z" fill="#FAD24D"/>
<path d="M65.0993 64.9648H57.6821V66.3352H65.0993V64.9648Z" fill="#FF5B62"/>
<path d="M79.109 64.9648H65.9551V66.3352H79.109V64.9648Z" fill="#20D0C2"/>
<path d="M58.5031 67.7153H51.0859V69.0856H58.5031V67.7153Z" fill="#FAD24D"/>
<path d="M64.7914 67.7153H59.4834V69.0856H64.7914V67.7153Z" fill="#20D0C2"/>
<path d="M80.9455 67.7153H66.041V69.0856H80.9455V67.7153Z" fill="#FF5B62"/>
<path d="M87.3451 67.7153H82.0371V69.0856H87.3451V67.7153Z" fill="#20D0C2"/>
<path d="M69.349 70.5925H49.501V71.9628H69.349V70.5925Z" fill="#20D0C2"/>
<path d="M75.5224 70.5925H70.2144V71.9628H75.5224V70.5925Z" fill="#FAD24D"/>
<path d="M83.696 70.5925H76.2788V71.9628H83.696V70.5925Z" fill="#FF5B62"/>
<path d="M59.059 56.6978H58.5107V58.3415H59.059V56.6978Z" fill="white"/>
<path d="M73.2812 62.0876H72.7329V63.7314H73.2812V62.0876Z" fill="white"/>
<path d="M57.7719 74.6472H49.8145V76.0175H57.7719V74.6472Z" fill="#20D0C2"/>
<path d="M72.8069 74.6472H58.6919V76.0175H72.8069V74.6472Z" fill="#FF5B62"/>
<path d="M85.5049 74.6472H73.4873V76.0175H85.5049V74.6472Z" fill="#FAD24D"/>
<path d="M62.3952 80.2825H58.1733V81.6528H62.3952V80.2825Z" fill="#FAD24D"/>
<path d="M70.3721 80.2827H62.8828V81.653H70.3721V80.2827Z" fill="#FF5B62"/>
<path d="M77.1083 80.2827H70.7329V81.653H77.1083V80.2827Z" fill="#20D0C2"/>
<path d="M57.1813 82.6921H49.7642V84.0625H57.1813V82.6921Z" fill="#20D0C2"/>
<path d="M71.191 82.6919H58.0371V84.0622H71.191V82.6919Z" fill="#FAD24D"/>
<path d="M59.059 77.3003H58.5107V78.944H59.059V77.3003Z" fill="white"/>
<path d="M73.2812 82.6921H72.7329V84.3359H73.2812V82.6921Z" fill="white"/>
<path d="M120.464 54.043H91.6841V60.6805H120.464V54.043Z" fill="#DCE3DB"/>
<path d="M91.6836 61.6206H105.39V70.3808H91.6836V61.6206Z" fill="#DCE3DB"/>
<path d="M106.757 61.6206H120.464V70.3808H106.757V61.6206Z" fill="#DCE3DB"/>
<path d="M91.7231 71.637H120.425V72.0612H91.7231V71.637ZM91.7231 75.6475H110.577V76.0717H91.7231V75.6475ZM91.7231 74.3104H120.425V74.7346H91.7231V74.3104ZM91.7231 72.9739H120.425V73.3981H91.7231V72.9739Z" fill="#DCE3DB"/>
<path d="M91.6499 77.1138H100.203V85.5942H91.6499V77.1138ZM111.945 77.1138H120.499V85.5942H111.945V77.1138ZM101.798 77.1138H110.351V85.5942H101.798V77.1138Z" fill="#DCE3DB"/>
<path d="M91.7231 86.7749H120.425V87.1991H91.7231V86.7749ZM91.7231 90.7854H110.577V91.2097H91.7231V90.7854ZM91.7231 89.4485H120.425V89.8728H91.7231V89.4485ZM91.7231 88.112H120.425V88.5362H91.7231V88.112Z" fill="#DCE3DB"/>
</g>
<defs>
<clipPath id="clip0_1_178">
<rect width="100" height="100" fill="white" transform="translate(35 35)"/>
</clipPath>
</defs>
</svg>
