<?xml version="1.0" standalone="no"?>
<!DOCTYPE svg PUBLIC "-//W3C//DTD SVG 20010904//EN"
 "http://www.w3.org/TR/2001/REC-SVG-20010904/DTD/svg10.dtd">
<svg version="1.0" xmlns="http://www.w3.org/2000/svg"
 width="500.000000pt" height="500.000000pt" viewBox="0 0 500.000000 500.000000"
 preserveAspectRatio="xMidYMid meet">

<g transform="translate(0.000000,500.000000) scale(0.100000,-0.100000)"
fill="#000000" stroke="none">
<path d="M1891 3621 c-7 -5 -23 -7 -35 -5 -20 4 -20 4 -1 -5 11 -4 35 -6 54
-3 24 4 32 2 27 -6 -4 -7 -15 -12 -24 -12 -14 -1 -14 -2 3 -12 25 -14 35 -29
28 -40 -2 -5 1 -15 7 -23 12 -15 1 -48 -16 -45 -5 0 -10 -6 -12 -14 -2 -9 1
-16 7 -16 6 0 8 -6 5 -14 -3 -8 5 -23 17 -35 22 -21 23 -21 41 -1 10 10 18 24
18 30 0 5 11 10 24 10 13 0 29 7 36 15 7 8 16 13 20 10 5 -3 19 -1 32 4 12 6
17 10 11 10 -18 1 -16 16 2 35 13 12 14 20 5 36 -6 12 -10 26 -7 33 5 17 -60
37 -125 37 -31 0 -60 5 -63 10 -8 12 -35 13 -54 1z"/>
<path d="M1828 3593 c6 -2 18 -2 25 0 6 3 1 5 -13 5 -14 0 -19 -2 -12 -5z"/>
<path d="M1765 3550 c-3 -5 -12 -7 -20 -3 -8 3 -15 0 -15 -6 0 -6 11 -11 24
-11 24 0 41 -23 31 -41 -3 -5 -20 -13 -38 -18 -23 -7 -26 -9 -11 -10 12 -1 24
-7 27 -15 8 -20 48 -16 46 4 -3 28 1 32 16 20 9 -7 19 -10 23 -6 4 4 0 13 -9
19 -9 7 -14 17 -12 22 4 12 -33 55 -47 55 -5 0 -11 -4 -15 -10z"/>
<path d="M2862 3535 c2 -13 -2 -19 -12 -17 -13 2 -13 1 0 -11 8 -7 21 -19 29
-27 11 -13 12 -12 3 6 -6 12 -9 24 -6 27 3 3 1 14 -5 24 -11 17 -11 17 -9 -2z"/>
<path d="M1678 3528 c-7 -18 -31 -20 -55 -5 -6 4 -14 3 -18 -3 -4 -6 -11 -8
-16 -4 -32 20 -198 -150 -254 -260 l-38 -75 13 -113 c9 -89 16 -118 33 -135
11 -13 25 -23 29 -23 16 0 78 -52 78 -65 0 -7 8 -19 18 -26 15 -13 16 -12 4 3
-7 9 -12 29 -10 45 2 22 -1 29 -19 31 -19 3 -20 7 -13 33 9 30 -5 42 -16 14
-9 -24 -34 -18 -44 11 -12 30 -4 89 14 102 6 5 27 12 47 16 37 7 60 -8 65 -41
5 -32 14 -25 14 11 0 31 5 40 35 57 19 12 35 29 35 38 0 9 15 25 33 36 17 10
35 23 39 29 4 6 27 11 52 11 24 0 40 3 35 6 -6 3 -11 15 -12 26 -1 18 -5 20
-25 12 -35 -13 -41 -10 -12 6 14 8 43 15 65 15 49 0 85 9 85 21 0 5 -7 9 -16
9 -8 0 -12 5 -9 10 3 6 1 10 -4 10 -6 0 -11 13 -11 30 0 28 -2 29 -31 23 -29
-5 -31 -4 -24 16 5 16 1 23 -17 30 -18 7 -25 5 -32 -10 -5 -10 -13 -19 -18
-19 -5 0 -6 -5 -3 -11 6 -9 -56 -79 -70 -79 -4 0 -5 10 -3 23 2 13 -6 31 -20
44 -13 12 -22 29 -20 38 3 16 43 42 98 63 68 26 82 33 77 38 -3 3 -14 1 -25
-5 -18 -9 -21 -8 -24 12 -3 19 -4 20 -10 5z m-186 -200 c-8 -8 -9 -4 -5 13 4
13 8 18 11 10 2 -7 -1 -18 -6 -23z m58 -50 c0 -6 8 -17 18 -24 15 -12 15 -15
2 -24 -21 -14 -28 -12 -33 8 -4 14 -6 14 -12 -5 -4 -13 -12 -23 -17 -23 -6 0
-7 7 -4 15 3 8 9 22 12 30 4 10 0 15 -12 15 -16 1 -14 3 6 14 26 15 40 13 40
-6z m13 -75 c-7 -2 -19 -2 -25 0 -7 3 -2 5 12 5 14 0 19 -2 13 -5z"/>
<path d="M2770 3450 c-8 -5 -12 -11 -10 -14 3 -2 14 2 24 10 22 15 10 19 -14
4z"/>
<path d="M2400 3392 c0 -21 -5 -43 -10 -48 -17 -17 9 -66 31 -59 14 5 20 -1
25 -19 3 -14 10 -26 15 -26 12 0 11 57 -1 65 -5 3 -10 19 -10 36 0 16 5 29 10
29 6 0 10 -9 10 -21 0 -31 18 -59 35 -53 11 5 13 -2 9 -32 -6 -47 -6 -48 -51
-46 -26 1 -43 -5 -61 -23 -14 -14 -33 -25 -43 -25 -18 0 -18 -1 1 -20 32 -32
26 -53 -14 -48 -32 3 -35 1 -39 -27 -8 -51 50 -77 74 -33 17 32 31 44 60 51
21 5 28 2 39 -18 7 -13 19 -26 26 -29 9 -3 5 7 -8 24 -12 16 -18 33 -14 37 8
8 55 -45 56 -63 0 -5 7 -19 15 -30 12 -16 14 -16 9 -2 -4 11 0 20 10 24 9 3
14 10 11 15 -3 4 -3 19 1 33 7 27 24 30 36 6 5 -8 5 1 2 20 -9 49 -75 188
-110 229 -88 104 -114 116 -114 53z"/>
<path d="M2730 3420 c0 -5 5 -10 11 -10 5 0 7 5 4 10 -3 6 -8 10 -11 10 -2 0
-4 -4 -4 -10z"/>
<path d="M2657 3409 c7 -7 15 -10 18 -7 3 3 -2 9 -12 12 -14 6 -15 5 -6 -5z"/>
<path d="M2170 3401 c0 -6 5 -13 10 -16 14 -9 52 4 45 16 -8 12 -55 12 -55 0z"/>
<path d="M2587 3349 c7 -7 15 -10 18 -7 3 3 -2 9 -12 12 -14 6 -15 5 -6 -5z"/>
<path d="M2580 3320 c6 -11 13 -20 16 -20 2 0 0 9 -6 20 -6 11 -13 20 -16 20
-2 0 0 -9 6 -20z"/>
<path d="M2616 3312 c-3 -5 1 -9 9 -9 8 0 12 4 9 9 -3 4 -7 8 -9 8 -2 0 -6 -4
-9 -8z"/>
<path d="M2327 3263 c11 -16 18 -37 17 -48 -1 -14 5 -21 17 -21 11 0 19 2 19
4 0 12 -54 92 -62 92 -5 0 -1 -12 9 -27z"/>
<path d="M1806 3252 c-2 -4 6 -12 19 -19 18 -8 24 -8 22 1 -4 21 -31 33 -41
18z"/>
<path d="M2296 3253 c-12 -12 -6 -33 9 -33 8 0 15 6 15 14 0 17 -14 28 -24 19z"/>
<path d="M2892 3230 c0 -14 2 -19 5 -12 2 6 2 18 0 25 -3 6 -5 1 -5 -13z"/>
<path d="M2670 3234 c0 -13 18 -39 24 -34 2 3 -2 14 -10 24 -8 11 -14 16 -14
10z"/>
<path d="M2706 3227 c3 -10 9 -15 12 -12 3 3 0 11 -7 18 -10 9 -11 8 -5 -6z"/>
<path d="M2671 3178 c-1 -21 15 -32 25 -17 4 7 3 9 -4 5 -6 -3 -13 2 -15 11
-4 16 -5 16 -6 1z"/>
<path d="M2706 3117 c3 -10 9 -15 12 -12 3 3 0 11 -7 18 -10 9 -11 8 -5 -6z"/>
<path d="M2891 3094 c0 -11 3 -14 6 -6 3 7 2 16 -1 19 -3 4 -6 -2 -5 -13z"/>
<path d="M2603 3033 c-7 -2 -13 -16 -13 -29 0 -17 6 -24 20 -24 16 0 20 -7 20
-35 0 -30 -3 -35 -23 -35 -13 0 -29 6 -36 13 -11 10 -14 10 -18 0 -3 -7 -8
-13 -12 -13 -16 0 -66 51 -66 67 0 20 -57 35 -89 24 -12 -5 -26 -6 -33 -4 -14
5 -63 -25 -63 -39 0 -5 -20 -30 -45 -55 -35 -35 -45 -52 -45 -78 0 -19 -4 -36
-9 -39 -11 -7 -9 -20 12 -67 23 -51 39 -60 103 -60 68 0 103 -24 85 -57 -6
-12 -11 -33 -11 -47 0 -34 -15 -62 -53 -102 -36 -38 -31 -40 67 -22 60 10 62
11 115 82 85 113 102 161 102 281 0 67 3 96 9 86 5 -8 10 -33 11 -55 l1 -40 9
40 c14 71 11 182 -7 199 -8 9 -16 16 -17 15 -1 0 -8 -3 -14 -6z"/>
<path d="M1520 2956 c0 -2 8 -10 18 -17 15 -13 16 -12 3 4 -13 16 -21 21 -21
13z"/>
<path d="M2821 2904 c0 -11 3 -14 6 -6 3 7 2 16 -1 19 -3 4 -6 -2 -5 -13z"/>
<path d="M1156 2898 c3 -5 10 -6 15 -3 13 9 11 12 -6 12 -8 0 -12 -4 -9 -9z"/>
<path d="M1210 2877 c0 -9 -5 -17 -11 -17 -5 0 -8 4 -5 8 3 5 -1 9 -9 9 -13 0
-13 -3 0 -17 8 -9 15 -25 16 -36 1 -10 5 -1 10 20 5 21 7 41 4 44 -3 3 -5 -2
-5 -11z"/>
<path d="M1125 2872 c3 -3 1 -10 -5 -16 -6 -8 -2 -12 13 -13 12 0 16 1 9 4 -9
3 -10 9 -3 17 8 9 6 13 -4 13 -8 0 -13 -3 -10 -5z"/>
<path d="M1225 2839 c-4 -6 -5 -12 -2 -15 2 -3 7 2 10 11 7 17 1 20 -8 4z"/>
<path d="M2686 2824 c-4 -14 -5 -28 -3 -31 3 -2 8 8 11 23 4 14 5 28 3 31 -3
2 -8 -8 -11 -23z"/>
<path d="M1076 2832 c-2 -4 -1 -14 4 -22 7 -11 9 -9 7 8 -1 24 -3 26 -11 14z"/>
<path d="M1560 2833 c-23 -9 -40 -36 -38 -58 1 -11 -3 -29 -8 -40 -6 -11 -10
-31 -10 -45 2 -34 60 -123 90 -140 19 -10 27 -24 31 -59 4 -25 10 -56 16 -69
5 -13 9 -32 9 -42 0 -23 5 -24 68 -9 55 14 71 25 83 56 5 13 21 26 41 31 25 6
36 16 44 41 6 17 22 43 37 57 15 14 27 27 27 30 0 9 -44 43 -55 44 -5 0 -23 7
-39 15 -15 8 -32 12 -37 9 -5 -3 -9 0 -9 6 0 7 -7 10 -15 6 -8 -3 -15 -1 -15
3 0 5 4 11 10 13 16 5 -14 52 -35 56 -11 2 -36 19 -56 38 -19 19 -38 32 -41
29 -2 -3 -19 0 -37 6 -27 9 -35 9 -43 -2 -7 -10 -8 -8 -5 9 3 12 4 22 4 21 -1
0 -9 -3 -17 -6z"/>
<path d="M2810 2815 c0 -5 5 -17 10 -25 5 -8 10 -10 10 -5 0 6 -5 17 -10 25
-5 8 -10 11 -10 5z"/>
<path d="M1069 2787 c6 -8 7 -18 3 -22 -4 -5 -1 -5 6 -1 10 6 10 11 1 22 -6 8
-14 14 -16 14 -3 0 0 -6 6 -13z"/>
<path d="M1107 2793 c-4 -3 -7 -11 -7 -17 0 -6 5 -5 12 2 6 6 9 14 7 17 -3 3
-9 2 -12 -2z"/>
<path d="M1035 2769 c-4 -6 -5 -12 -2 -15 2 -3 7 2 10 11 7 17 1 20 -8 4z"/>
<path d="M2690 2740 c0 -5 5 -10 11 -10 5 0 7 5 4 10 -3 6 -8 10 -11 10 -2 0
-4 -4 -4 -10z"/>
<path d="M1010 2719 c-7 -11 -10 -23 -7 -25 2 -2 9 7 15 21 14 30 7 33 -8 4z"/>
<path d="M2696 2697 c3 -10 9 -15 12 -12 3 3 0 11 -7 18 -10 9 -11 8 -5 -6z"/>
<path d="M1280 2631 c0 -10 19 -25 25 -20 1 2 -3 10 -11 17 -8 7 -14 8 -14 3z"/>
<path d="M2764 2602 c4 -7 2 -12 -5 -12 -7 0 -9 -3 -6 -6 3 -4 1 -16 -4 -27
-9 -16 -13 -17 -21 -6 -8 11 -9 11 -5 -3 3 -9 -3 -24 -14 -34 -10 -9 -19 -13
-19 -8 0 5 -5 1 -11 -9 -5 -9 -28 -26 -51 -38 -22 -11 -38 -17 -35 -12 3 4 -1
13 -8 20 -10 10 -14 9 -19 -3 -3 -9 -1 -12 4 -9 6 3 10 -1 10 -9 0 -9 -3 -16
-7 -17 -19 -2 -42 -8 -98 -27 -73 -25 -240 -42 -395 -41 -63 1 -153 -4 -200
-10 -92 -13 -306 -63 -336 -79 -11 -5 -25 -7 -33 -4 -8 2 -11 0 -7 -6 6 -10
-23 -26 -32 -17 -3 3 1 5 8 5 15 0 -19 29 -34 30 -6 0 -2 -6 8 -13 17 -12 17
-14 2 -30 -16 -15 -15 -19 16 -47 56 -51 183 -108 278 -124 177 -30 467 17
641 104 143 72 254 172 329 299 47 79 64 127 48 137 -7 4 -8 2 -4 -4z"/>
<path d="M1286 2592 c-7 -12 -1 -61 9 -70 4 -4 5 -1 1 6 -4 6 -2 12 3 12 6 0
11 -5 11 -11 0 -6 8 -3 17 6 16 16 16 18 0 27 -10 5 -15 13 -12 19 4 5 -2 6
-11 2 -12 -4 -15 -3 -10 5 4 7 5 12 2 12 -3 0 -7 -4 -10 -8z m29 -33 c11 -17
-1 -21 -15 -4 -8 9 -8 15 -2 15 6 0 14 -5 17 -11z"/>
<path d="M2723 2585 c0 -8 4 -12 9 -9 5 3 6 10 3 15 -9 13 -12 11 -12 -6z"/>
<path d="M1015 2580 c-3 -5 -1 -10 4 -10 6 0 11 5 11 10 0 6 -2 10 -4 10 -3 0
-8 -4 -11 -10z"/>
<path d="M2620 2575 c-7 -8 -17 -12 -23 -8 -6 3 -7 1 -3 -6 4 -6 11 -9 16 -6
9 6 23 -25 15 -33 -3 -3 -5 -1 -5 5 0 6 -9 13 -21 16 -20 5 -19 4 3 -17 13
-12 25 -21 27 -19 9 6 8 53 -1 53 -6 0 -5 6 2 15 7 8 10 15 7 15 -2 0 -10 -7
-17 -15z"/>
<path d="M1015 2496 c5 -23 3 -27 -9 -23 -9 4 -16 2 -16 -3 0 -14 18 -21 25
-10 4 6 11 7 17 4 7 -4 7 0 0 12 -5 11 -12 26 -16 34 -3 8 -4 2 -1 -14z"/>
<path d="M2539 2473 l-24 -28 28 24 c25 23 32 31 24 31 -2 0 -14 -12 -28 -27z"/>
<path d="M1384 2476 c1 -8 5 -18 8 -22 4 -3 5 1 4 10 -1 8 -5 18 -8 22 -4 3
-5 -1 -4 -10z"/>
<path d="M2592 2478 c2 -6 10 -13 16 -14 7 -1 8 0 2 3 -5 2 -8 9 -4 14 3 5 0
9 -6 9 -7 0 -10 -5 -8 -12z"/>
<path d="M1410 2435 c0 -9 7 -18 15 -22 23 -8 24 0 3 20 -15 14 -18 15 -18 2z"/>
<path d="M1048 2433 c7 -3 16 -2 19 1 4 3 -2 6 -13 5 -11 0 -14 -3 -6 -6z"/>
<path d="M1010 2421 c0 -5 8 -15 18 -22 15 -12 16 -12 5 2 -7 9 -10 19 -6 22
3 4 1 7 -5 7 -7 0 -12 -4 -12 -9z"/>
<path d="M1442 2391 c-11 -7 -11 -9 0 -14 9 -3 15 1 15 9 0 8 -1 14 -1 14 -1
0 -7 -4 -14 -9z"/>
<path d="M1100 2379 c0 -7 -8 -18 -17 -25 -17 -13 -17 -14 1 -7 13 4 17 3 12
-5 -3 -6 2 -15 12 -21 14 -7 19 -6 19 4 0 7 -7 11 -15 7 -11 -4 -13 -2 -7 9
12 18 14 49 3 49 -4 0 -8 -5 -8 -11z"/>
<path d="M1157 2329 c7 -7 15 -10 18 -7 3 3 -2 9 -12 12 -14 6 -15 5 -6 -5z"/>
<path d="M1545 2311 c-3 -5 -2 -12 3 -15 5 -3 9 1 9 9 0 17 -3 19 -12 6z"/>
<path d="M1150 2299 c-12 -8 -10 -9 9 -4 17 5 22 4 16 -5 -5 -9 -4 -11 4 -6 6
4 9 12 6 17 -8 12 -16 11 -35 -2z"/>
<path d="M1370 2271 c0 -5 9 -7 20 -4 11 3 20 7 20 9 0 2 -9 4 -20 4 -11 0
-20 -4 -20 -9z"/>
<path d="M1406 2251 c-15 -16 -15 -18 1 -18 25 0 47 23 29 30 -8 3 -21 -2 -30
-12z"/>
<path d="M1363 2207 c-4 -6 -1 -7 7 -2 10 6 12 4 6 -10 -6 -18 -6 -18 12 -2
10 9 22 15 25 12 4 -3 5 -2 2 2 -8 11 -45 11 -52 0z"/>
<path d="M1332 2185 c-15 -33 -16 -30 8 -32 26 -2 31 8 16 35 l-12 23 -12 -26z"/>
<path d="M1275 2120 c-12 -4 -27 -15 -34 -24 -11 -13 -11 -20 3 -41 9 -14 19
-25 21 -25 3 0 -2 11 -11 25 -9 14 -14 29 -10 33 4 3 11 0 16 -8 7 -10 10 -11
10 -2 0 6 5 11 12 10 7 -2 13 7 14 20 1 12 1 22 0 21 0 0 -10 -4 -21 -9z m15
-18 c0 -5 -7 -9 -15 -9 -8 0 -12 4 -9 9 3 4 9 8 15 8 5 0 9 -4 9 -8z"/>
<path d="M1222 2032 c-9 -6 -7 -13 10 -27 13 -11 17 -13 11 -5 -16 18 -17 34
-1 24 7 -4 8 -3 4 4 -8 14 -8 14 -24 4z"/>
<path d="M1180 2011 c5 -11 15 -23 21 -27 6 -3 3 5 -6 20 -20 30 -30 35 -15 7z"/>
<path d="M1216 1973 c-6 -14 -5 -15 5 -6 7 7 10 15 7 18 -3 3 -9 -2 -12 -12z"/>
<path d="M1150 1939 c0 -5 5 -7 10 -4 6 3 10 8 10 11 0 2 -4 4 -10 4 -5 0 -10
-5 -10 -11z"/>
<path d="M1171 1922 c-17 -31 -13 -40 5 -14 9 13 14 26 11 29 -3 2 -10 -4 -16
-15z"/>
<path d="M1147 1875 c3 -11 11 -23 17 -27 7 -5 4 -13 -8 -25 -18 -17 -18 -17
-13 0 4 9 2 17 -3 17 -13 0 -13 -27 1 -35 6 -4 19 2 29 12 18 20 17 21 -6 49
-17 21 -22 23 -17 9z"/>
<path d="M1102 1841 c-11 -7 -11 -9 0 -14 9 -3 15 1 15 9 0 8 -1 14 -1 14 -1
0 -7 -4 -14 -9z"/>
<path d="M1400 1838 c0 -4 7 -8 15 -8 8 0 35 -30 60 -67 37 -56 45 -76 45
-114 0 -37 -5 -50 -22 -62 -22 -15 -20 -16 40 -16 35 -1 62 3 62 9 0 6 -6 10
-14 10 -9 0 -15 15 -18 47 -4 57 18 108 74 166 21 22 38 42 38 44 0 1 -25 3
-55 3 -58 0 -66 -5 -38 -25 16 -12 15 -16 -11 -55 l-28 -42 -29 43 c-25 38
-27 46 -14 55 8 6 15 13 15 15 0 2 -27 4 -60 4 -33 1 -60 -3 -60 -7z"/>
<path d="M1813 1835 c-89 -38 -99 -180 -17 -244 44 -35 174 -23 174 15 0 10
-6 11 -26 4 -82 -32 -154 12 -154 94 0 56 15 91 47 105 36 16 67 13 96 -9 33
-26 37 -25 37 5 0 18 -7 28 -26 35 -36 14 -93 12 -131 -5z"/>
<path d="M2160 1840 c0 -4 8 -10 19 -13 18 -4 27 -25 91 -200 20 -53 24 -58
48 -55 24 3 31 13 56 81 16 43 33 74 38 69 4 -4 19 -39 31 -77 22 -64 26 -70
52 -70 26 0 30 6 73 124 32 88 50 125 64 129 36 9 17 19 -37 19 -58 0 -64 -3
-40 -21 13 -10 11 -23 -19 -111 -33 -99 -34 -100 -46 -70 -46 113 -62 185 -40
185 6 0 10 4 10 9 0 4 -25 9 -55 10 -31 0 -55 -3 -55 -9 0 -6 6 -10 14 -10 8
0 17 -8 21 -19 7 -22 -54 -196 -65 -184 -4 4 -21 48 -39 98 -28 79 -30 91 -16
101 25 18 18 22 -45 22 -33 0 -60 -4 -60 -8z"/>
<path d="M2790 1843 c-8 -3 -27 -17 -43 -31 -59 -55 -56 -163 5 -214 26 -23
42 -28 85 -28 46 0 58 4 90 33 31 29 37 41 41 89 5 66 -14 110 -61 138 -30 19
-85 25 -117 13z m102 -50 c10 -9 22 -32 27 -51 33 -119 -99 -198 -154 -92 -19
37 -19 71 0 115 22 55 83 68 127 28z"/>
<path d="M3050 1843 c0 -3 7 -11 15 -17 31 -23 30 -236 -1 -236 -8 0 -14 -4
-14 -10 0 -6 27 -10 63 -9 59 0 61 1 40 16 -17 11 -23 25 -23 54 0 47 20 52
45 12 38 -61 67 -83 107 -83 21 0 38 5 38 10 0 6 -9 10 -19 10 -11 0 -37 20
-59 45 l-40 45 29 29 c21 22 29 39 29 65 0 52 -32 69 -131 72 -43 2 -79 0 -79
-3z m158 -45 c29 -29 -6 -88 -53 -88 -23 0 -25 3 -25 50 0 50 0 50 33 50 18 0
38 -5 45 -12z"/>
<path d="M3370 1840 c0 -4 7 -10 15 -14 12 -4 15 -27 15 -116 0 -89 -3 -112
-15 -116 -38 -15 -7 -24 79 -24 l94 0 4 30 c5 33 -3 38 -22 15 -7 -9 -29 -15
-51 -15 l-39 0 0 110 c0 89 3 112 15 116 32 13 13 23 -40 23 -30 -1 -55 -5
-55 -9z"/>
<path d="M3630 1842 c0 -6 7 -12 15 -16 12 -4 15 -27 15 -116 0 -89 -3 -112
-15 -116 -37 -15 -8 -24 74 -24 75 0 93 3 122 23 42 28 59 60 59 115 0 98 -46
134 -177 140 -56 2 -93 -1 -93 -6z m173 -43 c23 -11 38 -31 50 -71 3 -9 1 -33
-4 -53 -12 -43 -58 -75 -106 -75 l-33 0 0 105 0 105 35 0 c19 0 45 -5 58 -11z"/>
<path d="M1167 1713 c-9 -2 -15 -9 -12 -14 9 -14 22 -11 29 6 3 8 4 14 3 14
-1 -1 -10 -3 -20 -6z"/>
<path d="M1208 1693 c6 -2 10 -8 8 -12 -3 -4 4 -7 15 -7 19 0 19 1 3 13 -10 7
-23 13 -28 12 -6 0 -5 -3 2 -6z"/>
<path d="M1136 1661 c-4 -5 3 -7 14 -4 23 6 26 13 6 13 -8 0 -17 -4 -20 -9z"/>
<path d="M1270 1632 c0 -6 -8 -9 -17 -6 -15 5 -16 4 -3 -5 16 -11 40 3 27 16
-4 3 -7 1 -7 -5z"/>
<path d="M1156 1614 c-8 -20 -8 -24 2 -24 4 0 8 9 9 20 2 24 -3 26 -11 4z"/>
<path d="M1285 1600 c-3 -6 1 -7 9 -4 18 7 21 14 7 14 -6 0 -13 -4 -16 -10z"/>
<path d="M1122 1588 c-8 -10 -3 -13 21 -15 18 0 25 1 17 4 -8 3 -18 10 -21 15
-3 5 -11 3 -17 -4z"/>
<path d="M1555 1355 c0 -63 1 -65 25 -64 14 0 19 3 13 6 -15 5 -18 43 -4 43 5
0 16 -11 25 -25 9 -14 26 -25 37 -25 18 0 17 3 -10 26 -38 32 -38 40 -4 76
l27 28 -27 0 c-18 0 -25 -4 -21 -13 2 -7 -4 -22 -16 -32 -20 -18 -20 -18 -20
8 0 14 6 28 13 30 6 3 1 6 -13 6 -24 1 -25 -1 -25 -64z"/>
<path d="M1705 1355 c0 -63 1 -65 25 -64 14 0 19 3 13 6 -8 3 -13 22 -13 46
l0 42 31 -47 c43 -66 57 -63 61 17 3 63 2 65 -21 65 -19 0 -21 -3 -12 -14 7
-8 11 -30 9 -48 l-3 -33 -30 48 c-43 68 -60 63 -60 -18z"/>
<path d="M1892 1404 c-26 -18 -30 -74 -6 -98 40 -40 111 1 100 58 -10 53 -51
70 -94 40z m68 -24 c6 -12 8 -29 5 -39 -17 -56 -75 -45 -75 13 0 18 3 36 7 39
14 15 53 6 63 -13z"/>
<path d="M2021 1404 c8 -9 21 -37 30 -62 8 -25 21 -48 27 -50 7 -2 20 14 29
35 l16 38 15 -37 c17 -44 37 -49 47 -11 3 15 15 44 25 65 17 35 17 38 2 38
-10 0 -18 -9 -19 -23 0 -12 -7 -35 -13 -52 l-12 -30 -15 34 c-8 19 -12 43 -10
53 4 13 0 18 -18 18 -18 0 -21 -4 -18 -24 3 -13 -2 -37 -10 -52 l-15 -29 -12
30 c-7 17 -13 40 -13 52 -2 17 -8 23 -26 23 -21 0 -22 -2 -10 -16z"/>
<path d="M2328 1400 c36 -39 47 -69 34 -91 -11 -17 -9 -19 11 -19 20 0 23 4
19 33 -3 25 3 41 23 65 l27 32 -26 0 c-16 0 -24 -5 -21 -12 3 -7 0 -20 -5 -28
-9 -13 -12 -12 -25 4 -12 16 -12 22 -2 28 7 5 -1 8 -21 8 -32 0 -33 0 -14 -20z"/>
<path d="M2492 1404 c-26 -18 -30 -74 -6 -98 40 -40 111 1 100 58 -10 53 -51
70 -94 40z m68 -24 c6 -12 8 -29 5 -39 -17 -56 -75 -45 -75 13 0 18 3 36 7 39
14 15 53 6 63 -13z"/>
<path d="M2625 1410 c4 -6 8 -31 9 -56 3 -47 16 -64 51 -64 31 0 45 20 45 65
0 23 5 46 12 53 9 9 6 12 -17 12 -23 0 -26 -3 -17 -12 17 -17 15 -74 -4 -92
-8 -9 -17 -16 -19 -16 -2 0 -11 7 -19 16 -19 18 -21 75 -4 92 9 9 6 12 -16 12
-16 0 -25 -4 -21 -10z"/>
<path d="M2788 1408 c16 -16 16 -90 0 -106 -9 -9 -6 -12 14 -12 22 0 25 4 21
28 l-4 27 23 -27 c13 -16 32 -28 41 -28 14 0 12 5 -10 24 -27 23 -27 25 -10
43 9 11 17 25 17 31 0 17 -34 32 -71 32 -26 0 -30 -3 -21 -12z m69 -25 c2 -6
-5 -17 -16 -23 -19 -10 -21 -8 -21 15 0 19 5 26 17 23 9 -2 18 -8 20 -15z"/>
<path d="M3013 1405 c-29 -20 -31 -75 -5 -98 21 -19 67 -23 77 -7 4 7 -2 9
-18 5 -29 -8 -57 16 -57 48 0 37 15 50 49 45 20 -3 30 -1 28 6 -6 18 -50 18
-74 1z"/>
<path d="M3138 1408 c16 -16 16 -90 0 -106 -9 -9 -7 -12 12 -12 24 0 25 3 25
65 0 62 -1 65 -24 65 -20 0 -22 -3 -13 -12z"/>
<path d="M3210 1406 c0 -9 7 -12 19 -9 24 6 34 -31 21 -75 -8 -30 -7 -32 18
-32 20 0 23 3 14 12 -7 7 -12 32 -12 56 0 42 1 44 25 40 17 -4 25 -1 25 8 0
10 -15 14 -55 14 -41 0 -55 -4 -55 -14z"/>
<path d="M3366 1385 c19 -25 25 -43 22 -65 -4 -27 -2 -30 21 -29 14 0 20 3 14
6 -21 8 -15 45 12 86 25 35 25 37 6 37 -13 0 -18 -5 -15 -13 3 -8 -2 -20 -11
-27 -14 -12 -18 -11 -26 1 -5 8 -7 20 -4 27 3 7 -5 12 -21 12 l-25 0 27 -35z"/>
</g>
</svg>
