<svg width="305" height="134" viewBox="0 0 305 134" fill="none" xmlns="http://www.w3.org/2000/svg">
<rect width="304" height="134" transform="translate(0.488281)" fill="white"/>
<path d="M47.1838 30.6817C42.7264 32.6067 41.752 34.6084 40.4766 38.4467V68.0976L77.5407 30.6817H47.1838Z" fill="#F57842"/>
<path d="M125.547 30.6817H90.6011C86.5626 28.7596 63.3531 56.4406 40.4766 80.099V102.337C51.4489 102.979 57.1247 100.755 66.2452 91.3945L125.547 30.6817Z" fill="#F57842"/>
<path d="M103.77 80.9248L77.5407 80.099L97.1469 103.414L126.414 102.337L103.77 80.9248Z" fill="#F57842"/>
<path d="M144.734 48.1836H148.671L157.53 66.5H153.628L152.163 63.418H141.464L140.046 66.5H136.132L144.734 48.1836ZM150.698 60.3594L146.737 52.0391L142.882 60.3594H150.698ZM164.039 72.1484H160.571V52.6719H164.039V53.9727C164.344 53.7617 164.704 53.5625 165.118 53.375C165.532 53.1875 165.977 53.0234 166.454 52.8828C166.93 52.7422 167.422 52.6328 167.93 52.5547C168.438 52.4688 168.946 52.4258 169.454 52.4258C170.625 52.4258 171.7 52.5977 172.676 52.9414C173.661 53.2852 174.504 53.7695 175.207 54.3945C175.911 55.0195 176.457 55.7695 176.848 56.6445C177.247 57.5117 177.446 58.4727 177.446 59.5273C177.446 60.6289 177.239 61.625 176.825 62.5156C176.411 63.3984 175.836 64.1562 175.102 64.7891C174.375 65.4141 173.508 65.8984 172.5 66.2422C171.5 66.5781 170.414 66.7461 169.243 66.7461C168.743 66.7461 168.247 66.7148 167.754 66.6523C167.27 66.5898 166.801 66.5039 166.348 66.3945C165.903 66.2852 165.481 66.1562 165.082 66.0078C164.692 65.8516 164.344 65.6836 164.039 65.5039V72.1484ZM164.039 62.1523C164.391 62.4336 164.762 62.6719 165.153 62.8672C165.543 63.0625 165.942 63.2227 166.348 63.3477C166.754 63.4727 167.164 63.5664 167.579 63.6289C167.993 63.6836 168.395 63.7109 168.786 63.7109C169.582 63.7109 170.289 63.6055 170.907 63.3945C171.532 63.1758 172.055 62.8789 172.477 62.5039C172.907 62.1289 173.235 61.6875 173.461 61.1797C173.688 60.6719 173.801 60.1211 173.801 59.5273C173.801 58.9727 173.688 58.4492 173.461 57.957C173.243 57.4648 172.922 57.0352 172.5 56.668C172.086 56.293 171.582 56 170.989 55.7891C170.403 55.5703 169.743 55.4609 169.008 55.4609C168.539 55.4609 168.071 55.5078 167.602 55.6016C167.133 55.6875 166.68 55.8125 166.243 55.9766C165.813 56.1406 165.407 56.3398 165.024 56.5742C164.649 56.8086 164.321 57.0703 164.039 57.3594V62.1523ZM184.822 72.1484H181.353V52.6719H184.822V53.9727C185.127 53.7617 185.486 53.5625 185.9 53.375C186.314 53.1875 186.759 53.0234 187.236 52.8828C187.713 52.7422 188.205 52.6328 188.713 52.5547C189.22 52.4688 189.728 52.4258 190.236 52.4258C191.408 52.4258 192.482 52.5977 193.459 52.9414C194.443 53.2852 195.287 53.7695 195.99 54.3945C196.693 55.0195 197.24 55.7695 197.631 56.6445C198.029 57.5117 198.228 58.4727 198.228 59.5273C198.228 60.6289 198.021 61.625 197.607 62.5156C197.193 63.3984 196.619 64.1562 195.884 64.7891C195.158 65.4141 194.291 65.8984 193.283 66.2422C192.283 66.5781 191.197 66.7461 190.025 66.7461C189.525 66.7461 189.029 66.7148 188.537 66.6523C188.052 66.5898 187.584 66.5039 187.131 66.3945C186.685 66.2852 186.263 66.1562 185.865 66.0078C185.474 65.8516 185.127 65.6836 184.822 65.5039V72.1484ZM184.822 62.1523C185.174 62.4336 185.545 62.6719 185.935 62.8672C186.326 63.0625 186.724 63.2227 187.131 63.3477C187.537 63.4727 187.947 63.5664 188.361 63.6289C188.775 63.6836 189.177 63.7109 189.568 63.7109C190.365 63.7109 191.072 63.6055 191.689 63.3945C192.314 63.1758 192.838 62.8789 193.259 62.5039C193.689 62.1289 194.017 61.6875 194.244 61.1797C194.47 60.6719 194.584 60.1211 194.584 59.5273C194.584 58.9727 194.47 58.4492 194.244 57.957C194.025 57.4648 193.705 57.0352 193.283 56.668C192.869 56.293 192.365 56 191.771 55.7891C191.185 55.5703 190.525 55.4609 189.791 55.4609C189.322 55.4609 188.853 55.5078 188.384 55.6016C187.916 55.6875 187.463 55.8125 187.025 55.9766C186.595 56.1406 186.189 56.3398 185.806 56.5742C185.431 56.8086 185.103 57.0703 184.822 57.3594V62.1523ZM211.352 48.1836H215.067V57.6641L224.735 48.1836H229.492L220.469 56.9258L229.492 66.5H224.547L217.797 59.5156L215.067 62.1523V66.5H211.352V48.1836ZM233.259 68.2344C233.619 68.4688 234.009 68.6758 234.431 68.8555C234.853 69.0352 235.291 69.1836 235.744 69.3008C236.205 69.418 236.673 69.5039 237.15 69.5586C237.627 69.6211 238.099 69.6523 238.568 69.6523C240.162 69.6523 241.388 69.3086 242.248 68.6211C243.115 67.9414 243.548 66.918 243.548 65.5508V65.082C243.244 65.293 242.9 65.4883 242.517 65.668C242.142 65.8398 241.736 65.9883 241.298 66.1133C240.869 66.2383 240.412 66.3359 239.927 66.4062C239.451 66.4688 238.966 66.5 238.474 66.5C237.419 66.5 236.474 66.3477 235.638 66.043C234.81 65.7305 234.107 65.2773 233.529 64.6836C232.959 64.082 232.521 63.3438 232.216 62.4688C231.912 61.5938 231.759 60.5938 231.759 59.4688V52.6719H235.216V58.5078C235.216 60.1797 235.533 61.4141 236.166 62.2109C236.806 63 237.814 63.3945 239.189 63.3945C240.158 63.3945 241.013 63.2266 241.755 62.8906C242.505 62.5469 243.103 62.1094 243.548 61.5781V52.6719H247.017V64.918C247.017 66.2383 246.83 67.3828 246.455 68.3516C246.08 69.3281 245.533 70.1367 244.814 70.7773C244.103 71.418 243.228 71.8945 242.189 72.207C241.15 72.5273 239.97 72.6875 238.65 72.6875C237.361 72.6875 236.158 72.5508 235.041 72.2773C233.923 72.0039 232.9 71.6328 231.97 71.1641L233.259 68.2344ZM251.393 59.6211C251.393 58.6055 251.577 57.6602 251.944 56.7852C252.319 55.9023 252.862 55.1406 253.573 54.5C254.292 53.8516 255.167 53.3438 256.198 52.9766C257.237 52.6094 258.421 52.4258 259.749 52.4258C260.327 52.4258 260.909 52.4609 261.495 52.5312C262.081 52.6016 262.643 52.7031 263.182 52.8359C263.729 52.9609 264.241 53.1133 264.718 53.293C265.194 53.4648 265.608 53.6562 265.96 53.8672L264.354 56.4805C263.597 56.1289 262.878 55.8711 262.198 55.707C261.526 55.543 260.843 55.4609 260.147 55.4609C259.35 55.4609 258.636 55.5664 258.003 55.7773C257.37 55.9805 256.831 56.2695 256.386 56.6445C255.948 57.0117 255.612 57.4492 255.378 57.957C255.151 58.457 255.038 59.0039 255.038 59.5977C255.038 60.1914 255.159 60.7422 255.401 61.25C255.651 61.75 255.999 62.1836 256.444 62.5508C256.897 62.9102 257.44 63.1953 258.073 63.4062C258.714 63.6094 259.425 63.7109 260.206 63.7109C261.065 63.7109 261.874 63.5898 262.632 63.3477C263.397 63.1055 264.108 62.7812 264.764 62.375L266.37 64.9883C265.956 65.2383 265.507 65.4727 265.022 65.6914C264.538 65.9023 264.018 66.0859 263.464 66.2422C262.917 66.3984 262.339 66.5195 261.729 66.6055C261.128 66.6992 260.503 66.7461 259.854 66.7461C258.534 66.7461 257.35 66.5664 256.304 66.207C255.257 65.8477 254.37 65.3516 253.643 64.7188C252.917 64.0781 252.358 63.3242 251.968 62.457C251.585 61.5898 251.393 60.6445 251.393 59.6211Z" fill="black"/>
<path d="M133.372 88.5V79.7727H134.689V83.9403H134.795L138.456 79.7727H140.113L136.593 83.7017L140.126 88.5H138.541L135.72 84.6009L134.689 85.7855V88.5H133.372ZM142.873 84.6136V88.5H141.598V81.9545H142.821V83.0199H142.902C143.053 82.6733 143.289 82.3949 143.61 82.1847C143.934 81.9744 144.341 81.8693 144.833 81.8693C145.279 81.8693 145.669 81.9631 146.005 82.1506C146.34 82.3352 146.6 82.6108 146.784 82.9773C146.969 83.3437 147.061 83.7969 147.061 84.3366V88.5H145.787V84.4901C145.787 84.0156 145.664 83.6449 145.417 83.3778C145.169 83.108 144.83 82.973 144.398 82.973C144.103 82.973 143.84 83.0369 143.61 83.1648C143.382 83.2926 143.202 83.4801 143.069 83.7273C142.938 83.9716 142.873 84.267 142.873 84.6136ZM151.887 88.6321C151.274 88.6321 150.738 88.4915 150.281 88.2102C149.823 87.929 149.468 87.5355 149.215 87.0298C148.963 86.5241 148.836 85.9332 148.836 85.2571C148.836 84.5781 148.963 83.9844 149.215 83.4759C149.468 82.9673 149.823 82.5724 150.281 82.2912C150.738 82.0099 151.274 81.8693 151.887 81.8693C152.501 81.8693 153.036 82.0099 153.494 82.2912C153.951 82.5724 154.306 82.9673 154.559 83.4759C154.812 83.9844 154.938 84.5781 154.938 85.2571C154.938 85.9332 154.812 86.5241 154.559 87.0298C154.306 87.5355 153.951 87.929 153.494 88.2102C153.036 88.4915 152.501 88.6321 151.887 88.6321ZM151.892 87.5625C152.289 87.5625 152.619 87.4574 152.88 87.2472C153.142 87.0369 153.335 86.7571 153.46 86.4077C153.588 86.0582 153.652 85.6733 153.652 85.2528C153.652 84.8352 153.588 84.4517 153.46 84.1023C153.335 83.75 153.142 83.4673 152.88 83.2543C152.619 83.0412 152.289 82.9347 151.892 82.9347C151.491 82.9347 151.159 83.0412 150.894 83.2543C150.633 83.4673 150.438 83.75 150.311 84.1023C150.186 84.4517 150.123 84.8352 150.123 85.2528C150.123 85.6733 150.186 86.0582 150.311 86.4077C150.438 86.7571 150.633 87.0369 150.894 87.2472C151.159 87.4574 151.491 87.5625 151.892 87.5625ZM157.941 88.5L156.014 81.9545H157.331L158.614 86.7614H158.678L159.965 81.9545H161.281L162.56 86.7401H162.624L163.898 81.9545H165.215L163.293 88.5H161.993L160.664 83.7741H160.566L159.236 88.5H157.941ZM169.749 79.7727H171.244L173.524 83.7401H173.618L175.898 79.7727H177.393L174.227 85.0739V88.5H172.915V85.0739L169.749 79.7727ZM180.573 88.6321C179.96 88.6321 179.424 88.4915 178.967 88.2102C178.51 87.929 178.154 87.5355 177.902 87.0298C177.649 86.5241 177.522 85.9332 177.522 85.2571C177.522 84.5781 177.649 83.9844 177.902 83.4759C178.154 82.9673 178.51 82.5724 178.967 82.2912C179.424 82.0099 179.96 81.8693 180.573 81.8693C181.187 81.8693 181.723 82.0099 182.18 82.2912C182.637 82.5724 182.992 82.9673 183.245 83.4759C183.498 83.9844 183.625 84.5781 183.625 85.2571C183.625 85.9332 183.498 86.5241 183.245 87.0298C182.992 87.5355 182.637 87.929 182.18 88.2102C181.723 88.4915 181.187 88.6321 180.573 88.6321ZM180.578 87.5625C180.975 87.5625 181.305 87.4574 181.566 87.2472C181.828 87.0369 182.021 86.7571 182.146 86.4077C182.274 86.0582 182.338 85.6733 182.338 85.2528C182.338 84.8352 182.274 84.4517 182.146 84.1023C182.021 83.75 181.828 83.4673 181.566 83.2543C181.305 83.0412 180.975 82.9347 180.578 82.9347C180.177 82.9347 179.845 83.0412 179.581 83.2543C179.319 83.4673 179.125 83.75 178.997 84.1023C178.872 84.4517 178.809 84.8352 178.809 85.2528C178.809 85.6733 178.872 86.0582 178.997 86.4077C179.125 86.7571 179.319 87.0369 179.581 87.2472C179.845 87.4574 180.177 87.5625 180.578 87.5625ZM189.553 85.7855V81.9545H190.832V88.5H189.579V87.3665H189.511C189.36 87.7159 189.118 88.0071 188.786 88.2401C188.457 88.4702 188.046 88.5852 187.555 88.5852C187.134 88.5852 186.762 88.4929 186.438 88.3082C186.117 88.1207 185.864 87.8438 185.68 87.4773C185.498 87.1108 185.407 86.6577 185.407 86.1179V81.9545H186.681V85.9645C186.681 86.4105 186.805 86.7656 187.052 87.0298C187.299 87.294 187.62 87.4261 188.015 87.4261C188.253 87.4261 188.491 87.3665 188.726 87.2472C188.965 87.1278 189.162 86.9474 189.319 86.706C189.478 86.4645 189.556 86.1577 189.553 85.7855ZM192.904 88.5V81.9545H194.135V82.9943H194.203C194.323 82.642 194.533 82.3651 194.834 82.1634C195.138 81.9588 195.482 81.8565 195.865 81.8565C195.945 81.8565 196.038 81.8594 196.146 81.8651C196.257 81.8707 196.344 81.8778 196.406 81.8864V83.1051C196.355 83.0909 196.264 83.0753 196.134 83.0582C196.003 83.0384 195.872 83.0284 195.742 83.0284C195.44 83.0284 195.172 83.0923 194.936 83.2202C194.703 83.3452 194.519 83.5199 194.382 83.7443C194.246 83.9659 194.178 84.2187 194.178 84.5028V88.5H192.904ZM208.756 82.6108H207.426C207.375 82.3267 207.28 82.0767 207.141 81.8608C207.001 81.6449 206.831 81.4616 206.629 81.3111C206.428 81.1605 206.202 81.0469 205.952 80.9702C205.704 80.8935 205.442 80.8551 205.163 80.8551C204.66 80.8551 204.21 80.9815 203.812 81.2344C203.418 81.4872 203.105 81.858 202.875 82.3466C202.648 82.8352 202.534 83.4318 202.534 84.1364C202.534 84.8466 202.648 85.446 202.875 85.9347C203.105 86.4233 203.419 86.7926 203.817 87.0426C204.214 87.2926 204.662 87.4176 205.159 87.4176C205.435 87.4176 205.696 87.3807 205.943 87.3068C206.193 87.2301 206.419 87.1179 206.621 86.9702C206.822 86.8224 206.993 86.642 207.132 86.429C207.274 86.2131 207.372 85.9659 207.426 85.6875L208.756 85.6918C208.685 86.1207 208.547 86.5156 208.342 86.8764C208.141 87.2344 207.881 87.544 207.562 87.8054C207.247 88.0639 206.886 88.2642 206.48 88.4062C206.074 88.5483 205.631 88.6193 205.151 88.6193C204.395 88.6193 203.722 88.4403 203.131 88.0824C202.54 87.7216 202.074 87.206 201.733 86.5355C201.395 85.8651 201.226 85.0653 201.226 84.1364C201.226 83.2045 201.396 82.4048 201.737 81.7372C202.078 81.0668 202.544 80.5526 203.135 80.1946C203.726 79.8338 204.398 79.6534 205.151 79.6534C205.614 79.6534 206.045 79.7202 206.446 79.8537C206.849 79.9844 207.212 80.1776 207.533 80.4332C207.854 80.6861 208.119 80.9957 208.329 81.3622C208.54 81.7259 208.682 82.142 208.756 82.6108ZM210.589 88.5V81.9545H211.863V88.5H210.589ZM211.232 80.9446C211.011 80.9446 210.821 80.8707 210.661 80.723C210.505 80.5724 210.427 80.3935 210.427 80.1861C210.427 79.9759 210.505 79.7969 210.661 79.6491C210.821 79.4986 211.011 79.4233 211.232 79.4233C211.454 79.4233 211.643 79.4986 211.799 79.6491C211.958 79.7969 212.038 79.9759 212.038 80.1861C212.038 80.3935 211.958 80.5724 211.799 80.723C211.643 80.8707 211.454 80.9446 211.232 80.9446ZM216.993 81.9545V82.9773H213.417V81.9545H216.993ZM214.376 80.3864H215.65V86.5781C215.65 86.8253 215.687 87.0114 215.761 87.1364C215.835 87.2585 215.93 87.3423 216.047 87.3878C216.166 87.4304 216.295 87.4517 216.434 87.4517C216.537 87.4517 216.626 87.4446 216.703 87.4304C216.78 87.4162 216.839 87.4048 216.882 87.3963L217.112 88.4489C217.038 88.4773 216.933 88.5057 216.797 88.5341C216.66 88.5653 216.49 88.5824 216.285 88.5852C215.95 88.5909 215.638 88.5312 215.348 88.4062C215.058 88.2812 214.824 88.0881 214.645 87.8267C214.466 87.5653 214.376 87.2372 214.376 86.8423V80.3864ZM219.568 90.9545C219.377 90.9545 219.204 90.9389 219.048 90.9077C218.891 90.8793 218.775 90.848 218.698 90.8139L219.005 89.7699C219.238 89.8324 219.445 89.8594 219.627 89.8509C219.809 89.8423 219.97 89.7741 220.109 89.6463C220.251 89.5185 220.376 89.3097 220.484 89.0199L220.641 88.5852L218.246 81.9545H219.61L221.268 87.0341H221.336L222.994 81.9545H224.362L221.664 89.3736C221.539 89.7145 221.38 90.0028 221.187 90.2386C220.994 90.4773 220.764 90.6563 220.496 90.7756C220.229 90.8949 219.92 90.9545 219.568 90.9545Z" fill="#F57842"/>
</svg>
